<svg width="984" height="208" viewBox="0 0 984 208" fill="none" xmlns="http://www.w3.org/2000/svg">
<path fill-rule="evenodd" clip-rule="evenodd" d="M232.18 148.57C252.54 148.57 261.66 133.83 261.66 104.35V46.79H284.12V116.98V153.7C284.12 195.58 254.64 207.75 225.63 207.75C191.95 207.75 177.12 179.86 204.11 159.69C198.46 155.58 194.25 149.49 191.76 141.24C185.33 157.98 174.07 166.34 160.82 166.34C143.27 166.34 135.32 154.64 135.32 132.65V88.9H135.33V25.27C135.33 22.7 135.33 21.76 134.39 21.76C133.45 21.76 132.98 22.69 132.28 25.5L94.3701 163.78H55.5301L24.1801 52.41C15.0601 19.89 28.8601 0 54.8301 0C82.6701 0 91.3301 16.84 91.3301 31.35C91.3301 38.67 89.8501 46.18 87.3701 53.37C85.0101 60.19 78.2901 73.42 74.5301 79.23L56.7001 69.87C57.8186 67.8662 58.8781 66.0798 59.8866 64.3794C62.2501 60.3941 64.3335 56.8813 66.2401 52.15C68.3901 46.83 69.3401 41.62 69.3401 37.2C69.3401 28.31 64.6601 21.29 57.1701 21.29C47.5801 21.29 39.8601 26.67 46.8801 53.1H46.8901L72.6301 148.56H76.8401L107.72 29.71C112.17 12.63 120.59 0 135.33 0C150.07 0 160.13 8.19 160.13 24.57V107.16H160.12V131.01C160.12 143.18 163.63 148.56 169.48 148.56C183.05 148.56 189.13 128.91 189.13 104.34V46.79H211.59V116.28C211.59 141.55 219.31 148.57 232.18 148.57ZM225.63 189.97C241.54 189.97 261.66 184.36 261.66 149.03V144.51C253.92 159.09 241.53 166.35 227.5 166.35C221.68 166.35 216.4 165.51 211.74 163.77C201.41 176.67 207.37 189.97 225.63 189.97ZM431.69 43.2798C395.89 43.2798 373.9 68.5498 373.9 105.05H373.89C373.89 140.85 394.25 167.05 431.68 167.05C462.57 167.05 479.41 150.43 485.73 127.74H462.8C460.69 135.46 452.74 148.8 432.15 148.8C409.22 148.8 397.29 131.02 397.29 111.6H486.9V102.71C486.9 66.6798 467.49 43.2798 431.69 43.2798ZM397.3 93.5898C398.24 74.6398 412.27 61.5398 430.99 61.5398C451.11 61.5398 463.51 75.3398 463.51 93.5898H397.3ZM328.81 69.0202H328.35V47.0302H305.89V163.78H328.35V103.65C328.35 80.7202 343.09 65.5102 363.44 65.5102C366.24 65.5102 368.35 65.5102 370.69 66.6802V44.9202C367.42 44.4502 364.61 44.4502 359.93 44.4502C344.49 44.4502 334.89 54.5102 328.81 69.0202ZM824.85 47.0298H847.31V163.77H824.85V47.0298ZM931.3 43.2798C912.82 43.2798 901.82 52.4098 894.8 60.8298H894.57V47.0298H872.34V204.48H894.57V149.27H894.8C901.82 158.63 912.82 167.05 931.3 167.05C960.78 167.05 983.47 143.65 983.47 105.28C983.47 66.9098 960.78 43.2798 931.3 43.2798ZM927.55 148.57C907.43 148.57 894.8 131.72 894.8 105.29C894.8 78.8598 907.43 62.0098 927.55 62.0098C949.3 62.0098 960.3 82.3598 960.3 105.29C960.3 128.22 949.31 148.57 927.55 148.57ZM0 163.77H23.4L39.24 124.12L19.95 115.65L0 163.77ZM767.06 69.0202H767.53C774.08 54.5102 783.21 44.4502 799.11 44.4502C803.56 44.4502 806.13 44.4502 809.4 44.9202V66.6802C807.06 65.5102 805.19 65.5102 802.38 65.5102C781.79 65.5102 767.05 80.7202 767.05 103.64H767.06V163.77H744.83V47.0302H767.06V69.0202ZM703.19 131.48V65.2698H725.65V47.0198H703.19V9.58984H680.96V47.0198H663.88V65.2698H680.96V131.01C680.96 157.45 692.9 165.17 712.08 165.17C716.76 165.17 720.5 164.94 726.35 163.77V145.52C725.495 145.662 724.747 145.795 724.063 145.916C721.378 146.391 719.692 146.69 716.52 146.69C706.92 146.69 703.18 143.88 703.18 131.48H703.19ZM823.21 1.87012H848.71V26.2001H823.21V1.87012ZM599.62 137.33V83.5198C599.62 53.3398 580.43 43.2798 556.099 43.2798C520.539 43.2798 505.8 60.8298 504.63 83.2898H527.32C528.49 67.6098 535.05 61.5298 555.4 61.5298C572.24 61.5298 577.39 68.5498 577.39 76.7398C577.39 88.1998 566.62 90.5398 548.14 93.8198C518.66 99.6698 498.77 107.15 498.77 133.59H498.78C498.78 153.47 514.22 167.04 537.15 167.04C556.57 167.04 570.14 159.32 577.16 147.15H577.63C579.27 160.72 585.349 165.17 596.349 165.17C599.425 165.17 602.663 164.534 605.796 163.919C606.473 163.786 607.145 163.654 607.81 163.53V149.49C606.41 149.96 605.71 149.96 605.24 149.96C600.79 149.96 599.62 145.52 599.62 137.33ZM577.38 118.15C577.38 138.51 562.88 148.8 542.29 148.8C528.49 148.81 522.64 143.19 522.64 131.96C522.64 120.03 531.53 113.94 551.65 110.2C553.373 109.761 555.063 109.341 556.702 108.934C566.419 106.521 574.386 104.543 577.39 101.54V118.15H577.38ZM625.98 0H648.44V163.77H625.98V0Z" fill="#191919"/>
</svg>
